# xmcd CD database file
#
# Track frame offsets:
#	182
#	14430
#	38202
#	52872
#	73222
#	93500
#	112745
#	133092
#	149802
#	171775
#	191780
#	210175
#
# Disc length: 3323 seconds
#
# Revision: 3
# Processed by: cddbd v1.5.2PL0 Copyright (c) Steve Scherf et al.
# Submitted via: CDex 1.51
#
DISCID=ac0cf90c
DTITLE=Todd Snider - Songs For The Daily Planet
DYEAR=1994
DGENRE=Rock
TTITLE0=My Generation (Part 2)
TTITLE1=Easy Money
TTITLE2=That Was Me
TTITLE3=This Land Is Our Land
TTITLE4=Alright Guy
TTITLE5=I Spoke As A Child
TTITLE6=Turn It Up
TTITLE7=Trouble
TTITLE8=Alot More
TTITLE9=You Think You Know Somebody
TTITLE10=Somebody's Coming
TTITLE11=Joe's Blues and Seattle Grunge
EXTD=YEAR: 1994
EXTT0=
EXTT1=
EXTT2=
EXTT3=
EXTT4=
EXTT5=
EXTT6=
EXTT7=
EXTT8=
EXTT9=
EXTT10=
EXTT11=
PLAYORDER=
